# xmcd
#
# Track frame offsets: 
#        183
#        33090
#        43570
#        54963
#        66478
#        80270
#        94990
#        109510
#        137885
#        152725
#        174173
#        190073
#        209785
#        232685
#
# Disc length: 3499 seconds
#
# Revision: 4
# Processed by: cddbd v1.5.1PL0 Copyright (c) Steve Scherf et al.
# Submitted via: ExactAudioCopy v0.95a5
#
DISCID=b10da90e
DTITLE=The James Cotton Band - Live at Electric Lady
DYEAR=1900
DGENRE=Blues
TTITLE0=Back At The Chicken Shack
TTITLE1=Off The Wall
TTITLE2=Rocket 88
TTITLE3=Don't Start Me Talkin'
TTITLE4=Georgia Swing
TTITLE5=One More Mile
TTITLE6=I Got My Mojo Working
TTITLE7=How Long Can A Fool Go Wrong
TTITLE8=Blow Wind Blow
TTITLE9=Mean Ol' World
TTITLE10=I Don't Know
TTITLE11=Boogie Thing
TTITLE12=Stormy Monday
TTITLE13=Fever
EXTD=
EXTT0=
EXTT1=
EXTT2=
EXTT3=
EXTT4=
EXTT5=
EXTT6=
EXTT7=
EXTT8=
EXTT9=
EXTT10=
EXTT11=
EXTT12=
EXTT13=
PLAYORDER=
